<svg xmlns="http://www.w3.org/2000/svg" width="32" height="32" viewBox="-5 -5 90 90" fill="none"><rect x="-5" y="-5" width="90" height="90" rx="16" fill="#FFFFFF"/><path d="M10 40 C10 20 17 7 28 9 C23 15 21 26 21 40 C21 54 23 65 28 71 C17 73 10 60 10 40Z" fill="#C07055"/><path d="M70 40 C70 20 63 7 52 9 C57 15 59 26 59 40 C59 54 57 65 52 71 C63 73 70 60 70 40Z" fill="#2E7268"/><circle cx="40" cy="40" r="11" fill="#FFFFFF"/><circle cx="40" cy="40" r="6" fill="#C07055" opacity="0.15"/><circle cx="40" cy="40" r="3" fill="#FFFFFF" stroke="#2E7268" stroke-width="1.5"/><circle cx="40" cy="40" r="1.4" fill="#2E7268"/></svg>