<svg xmlns="http://www.w3.org/2000/svg" width="512" height="512" viewBox="-8 -8 116 116" fill="none"><rect x="-8" y="-8" width="116" height="116" rx="16" fill="#0E0C0A"/><path d="M80 5 C94 14, 90 38, 60 48 C44 53, 30 46, 32 34 C34 22, 54 6, 80 5Z" fill="#E08870"/><path d="M20 95 C6 86, 10 62, 40 52 C56 47, 70 54, 68 66 C66 78, 46 94, 20 95Z" fill="#52A898"/><circle cx="50" cy="40" r="9" fill="#52A898"/><path d="M41 54 C41 49, 45 46, 50 46 C55 46, 59 49, 59 54 C59 62, 55 70, 50 72 C45 70, 41 62, 41 54Z" fill="#52A898"/></svg>