<svg xmlns="http://www.w3.org/2000/svg" width="512" height="512" viewBox="-8 -8 96 96" fill="none"><rect x="-8" y="-8" width="96" height="96" rx="16" fill="#0E0C0A"/><path d="M10 40 C10 20 17 7 28 9 C23 15 21 26 21 40 C21 54 23 65 28 71 C17 73 10 60 10 40Z" fill="#E08870"/><path d="M70 40 C70 20 63 7 52 9 C57 15 59 26 59 40 C59 54 57 65 52 71 C63 73 70 60 70 40Z" fill="#52A898"/><circle cx="40" cy="40" r="11" fill="#0E0C0A"/><circle cx="40" cy="40" r="6" fill="#E08870" opacity="0.15"/><circle cx="40" cy="40" r="3" fill="#0E0C0A" stroke="#52A898" stroke-width="1.5"/><circle cx="40" cy="40" r="1.4" fill="#52A898"/></svg>